<svg width="32" height="32" viewBox="0 0 32 32" fill="none" xmlns="http://www.w3.org/2000/svg">
<path d="M5.51761 23.469L5.92521 24.4394C6.21271 24.3215 6.51213 24.2343 6.81837 24.1792L6.62839 23.1455C6.24754 23.2139 5.87517 23.3224 5.51761 23.469Z" fill="#00AAFF"/>
<path d="M2.72678 26.0754L3.68303 26.5332C4.01397 25.8584 4.51739 25.2808 5.1435 24.8573L4.54385 23.9903C3.76485 24.5172 3.13851 25.2359 2.72678 26.0754Z" fill="#00AAFF"/>
<path d="M31.9375 25.7798C31.9381 24.8755 31.6008 24.0028 30.9904 23.3293L30.1987 24.0296C30.5128 24.376 30.7279 24.7989 30.8219 25.2547H27.1562C27.0688 25.2547 26.9827 25.276 26.9056 25.3168C26.8285 25.3576 26.7628 25.4166 26.7142 25.4885L24.747 28.4052H23.4375V26.8299C23.4386 25.8555 23.8308 24.9212 24.5279 24.2321C25.2251 23.5431 26.1703 23.1555 27.1562 23.1544H28.2188C28.7412 23.1535 29.2521 23.3056 29.6871 23.5916L30.2755 22.7171C29.8167 22.4153 29.2955 22.2187 28.75 22.1417V20.5289C28.75 20.3897 28.694 20.2561 28.5944 20.1577C28.4948 20.0592 28.3596 20.0039 28.2188 20.0039C27.6554 20.0032 27.1152 19.7818 26.7168 19.388C26.3185 18.9942 26.0944 18.4604 26.0938 17.9035V15.8032H27.6875C27.8284 15.8032 27.9635 15.7479 28.0632 15.6494C28.1628 15.5509 28.2188 15.4174 28.2188 15.2781V11.6025C28.2188 11.4633 28.1628 11.3297 28.0632 11.2313C27.9635 11.1328 27.8284 11.0775 27.6875 11.0775H26.7505C26.5285 11.0778 26.3076 11.1079 26.0938 11.1669V10.5524C26.0938 10.4331 26.0527 10.3173 25.9773 10.2242L24.2392 8.07661C24.4669 7.69699 24.5488 7.24905 24.4699 6.81467C24.391 6.38029 24.1566 5.98847 23.8095 5.71083C23.4624 5.43318 23.0259 5.28825 22.5796 5.30253C22.1333 5.31681 21.7071 5.48935 21.379 5.7886C21.0508 6.08785 20.8425 6.49383 20.7922 6.93235C20.7419 7.37086 20.853 7.81262 21.105 8.17689C21.3571 8.54116 21.7334 8.80361 22.1651 8.91627C22.5968 9.02892 23.0551 8.98427 23.4563 8.79046L25.0312 10.7365V11.3991L22.6957 10.6296C22.5427 10.5775 22.3819 10.5514 22.2201 10.5524H17.8381L15.316 7.64401C15.527 7.49911 15.6994 7.3059 15.8185 7.08087C15.9377 6.85584 15.9999 6.60567 16 6.35171V6.15113L16.7689 5.77117C16.8362 5.73787 16.8957 5.69079 16.9432 5.63305C16.9908 5.57531 17.0254 5.50824 17.0447 5.43628C17.064 5.36432 17.0677 5.28912 17.0553 5.21567C17.043 5.14222 17.015 5.0722 16.9733 5.01026L16.1007 3.71659C16.2218 3.69347 16.3311 3.6294 16.4096 3.53536C16.4882 3.44132 16.5312 3.32318 16.5312 3.20122C16.5303 2.36595 16.1941 1.56516 15.5966 0.974535C14.999 0.383909 14.1888 0.0516757 13.3438 0.0507202C12.3433 0.0507202 11.417 0.334724 10.728 1.08723C10.4295 1.41379 10.2034 1.79844 10.0641 2.21648C9.92494 2.63453 9.87571 3.07673 9.91964 3.51469L10.0333 4.63784C10.0812 5.1221 10.3153 5.56971 10.6875 5.8882V15.8032C10.6872 16.1721 10.7859 16.5344 10.9734 16.8534H10.1562C9.97525 16.8533 9.79557 16.8838 9.625 16.9437V10.0273C9.62453 9.60966 9.45646 9.20926 9.15768 8.91394C8.85889 8.61863 8.45379 8.45251 8.03125 8.45204H1.65625C1.23371 8.45251 0.828606 8.61863 0.529823 8.91394C0.23104 9.20926 0.0629747 9.60966 0.0625001 10.0273V12.6527H1.125V11.6025H8.5625V16.8534H1.125V13.7029H0.0625001V17.9904C0.0623824 18.2363 0.149671 18.4745 0.309128 18.6634C0.468584 18.8522 0.690079 18.9797 0.934945 19.0236L5.90625 19.917V21.1492C5.45584 21.2523 5.01601 21.3962 4.59234 21.5791H1.65625C1.51535 21.5791 1.38023 21.6344 1.2806 21.7329C1.18097 21.8314 1.125 21.9649 1.125 22.1042V24.5965C0.430868 25.7486 0.0638216 27.0643 0.0625001 28.4052C0.0625001 28.5445 0.118471 28.678 0.2181 28.7765C0.317728 28.875 0.452854 28.9303 0.59375 28.9303H3.02893C3.34641 29.7059 3.89103 30.3702 4.59297 30.838C5.29491 31.3057 6.12219 31.5556 6.96875 31.5556C7.81531 31.5556 8.64259 31.3057 9.34453 30.838C10.0465 30.3702 10.5911 29.7059 10.9086 28.9303H19.8409C20.211 28.9301 20.577 28.8535 20.9154 28.7056C21.2539 28.5577 21.5574 28.3416 21.8066 28.0711L22.375 27.4529V28.9303C22.375 29.0695 22.431 29.2031 22.5306 29.3016C22.6302 29.4 22.7654 29.4554 22.9062 29.4554H24.007C24.4748 30.2561 25.1969 30.882 26.0612 31.2358C26.9255 31.5896 27.8838 31.6517 28.7875 31.4124C29.6912 31.173 30.4897 30.6457 31.0592 29.9121C31.6287 29.1785 31.9375 28.2797 31.9375 27.355C31.9379 26.9529 31.8796 26.5527 31.7644 26.167C31.819 26.118 31.8626 26.0582 31.8924 25.9915C31.9222 25.9248 31.9375 25.8527 31.9375 25.7798ZM21.8438 7.13934C21.8438 6.98356 21.8905 6.83128 21.978 6.70176C22.0656 6.57223 22.1901 6.47128 22.3357 6.41167C22.4813 6.35205 22.6415 6.33646 22.7961 6.36685C22.9507 6.39724 23.0927 6.47225 23.2041 6.5824C23.3155 6.69255 23.3914 6.8329 23.4222 6.98568C23.4529 7.13846 23.4372 7.29683 23.3768 7.44075C23.3165 7.58467 23.2144 7.70768 23.0833 7.79422C22.9523 7.88077 22.7982 7.92696 22.6406 7.92696C22.4293 7.92674 22.2268 7.84368 22.0774 7.69602C21.928 7.54836 21.844 7.34816 21.8438 7.13934ZM14.2436 25.7798C13.7233 25.7792 13.2245 25.5746 12.8566 25.211C12.4888 24.8474 12.2818 24.3544 12.2812 23.8402C12.2812 23.3247 12.4131 22.8425 12.7607 22.4459C13.0705 22.0934 13.4982 21.8627 13.9658 21.7961C14.5302 21.7165 15.0467 21.4383 15.4204 21.0126C15.794 20.5869 15.9998 20.0423 16 19.4788C16.0001 19.4098 15.9864 19.3414 15.9597 19.2777C15.9329 19.214 15.8937 19.1561 15.8443 19.1074C15.9346 18.9207 15.9867 18.7183 15.9978 18.5118C16.0088 18.3052 15.9785 18.0985 15.9086 17.9035H17.3515L15.0202 23.8943C14.9639 24.0386 14.9358 24.1921 14.9375 24.3468V25.7798H14.2436ZM16 24.7296H18.6562C18.7702 24.7297 18.8811 24.766 18.9725 24.8332C19.064 24.9003 19.1312 24.9947 19.1642 25.1025C19.1972 25.2103 19.1943 25.3257 19.1559 25.4317C19.1175 25.5377 19.0456 25.6287 18.9509 25.6913C18.8174 25.7492 18.6732 25.7793 18.5274 25.7798H16V24.7296ZM20.1226 24.6377C20.017 24.3934 19.8507 24.1794 19.6391 24.0154C19.4275 23.8515 19.1776 23.7429 18.9123 23.6998L21.1124 18.4645C21.3079 17.9992 21.3843 17.4935 21.3347 16.992C21.285 16.4906 21.111 16.009 20.828 15.59C20.545 15.1709 20.1618 14.8274 19.7123 14.5898C19.2628 14.3522 18.7609 14.2279 18.2512 14.228H16V13.3953L16.1556 13.5491C16.2049 13.5978 16.2635 13.6365 16.3279 13.6629C16.3924 13.6893 16.4615 13.7029 16.5312 13.7029H21.9351C21.85 13.9405 21.8238 14.1947 21.8588 14.4444C21.8938 14.6941 21.9888 14.9318 22.1361 15.1376C22.2833 15.3433 22.4783 15.5112 22.7048 15.627C22.9312 15.7429 23.1825 15.8033 23.4375 15.8032H23.439C23.0927 16.257 22.9056 16.8101 22.9062 17.3785V21.4518C22.9054 21.7301 22.7936 21.997 22.595 22.1943L20.1226 24.6377ZM23.4375 14.753C23.3324 14.753 23.2297 14.7222 23.1424 14.6645C23.055 14.6068 22.9869 14.5248 22.9467 14.4289C22.9065 14.3329 22.896 14.2274 22.9165 14.1255C22.937 14.0237 22.9876 13.9301 23.0618 13.8567C23.1361 13.7832 23.2308 13.7332 23.3339 13.713C23.4369 13.6927 23.5437 13.7031 23.6408 13.7428C23.7379 13.7826 23.8208 13.8499 23.8792 13.9362C23.9376 14.0226 23.9688 14.1241 23.9688 14.228C23.9686 14.3672 23.9126 14.5006 23.813 14.5991C23.7134 14.6975 23.5783 14.7529 23.4375 14.753ZM27.1562 12.1276V14.753H26.0938V12.2911C26.2958 12.1842 26.5213 12.128 26.7505 12.1276H27.1562ZM25.0312 14.228C25.0313 13.9759 24.9702 13.7276 24.853 13.5037C24.7358 13.2799 24.566 13.0871 24.3578 12.9416C24.1496 12.7961 23.9091 12.7021 23.6565 12.6676C23.4039 12.633 23.1466 12.6589 22.9062 12.743V11.806L25.0312 12.5061V14.228ZM17.5938 11.6025H21.8438V12.6527H16.7513L13.7194 9.65599L12.9681 10.3986L14.9375 12.3451V14.228H11.75V7.92696H14.1619L17.1904 11.4192C17.2403 11.4767 17.3021 11.5229 17.3718 11.5545C17.4414 11.5862 17.5171 11.6025 17.5938 11.6025ZM11.5158 1.79189C12.0014 1.2615 12.6459 1.10089 13.3438 1.10089C13.8147 1.10148 14.2722 1.25643 14.6446 1.54147C15.0169 1.82652 15.2832 2.22556 15.4015 2.67613H13.3438C13.2029 2.67613 13.0677 2.73146 12.9681 2.82993C12.8685 2.9284 12.8125 3.06196 12.8125 3.20122V4.44829C12.8117 4.66666 12.7262 4.87642 12.5737 5.03439C12.4211 5.19235 12.2131 5.28649 11.9925 5.29743C11.7718 5.30836 11.5553 5.23526 11.3875 5.09317C11.2197 4.95108 11.1135 4.75081 11.0906 4.53361L10.9769 3.41046C10.9458 3.11835 10.9777 2.82303 11.0706 2.54402C11.1635 2.26501 11.3152 2.00865 11.5158 1.79189ZM11.9492 6.35171C12.4598 6.35119 12.9493 6.15049 13.3104 5.79364C13.6714 5.43679 13.8745 4.95295 13.875 4.44829V3.7263H14.9375C14.9375 3.82998 14.9685 3.93134 15.0267 4.01759L15.7554 5.09808L15.2308 5.35721C15.1427 5.40085 15.0686 5.46787 15.0168 5.55077C14.9649 5.63368 14.9375 5.72919 14.9375 5.82663V6.35171C14.9373 6.49093 14.8813 6.62439 14.7817 6.72283C14.6821 6.82127 14.5471 6.87664 14.4062 6.8768H11.75V6.34141C11.8162 6.34819 11.8827 6.35162 11.9492 6.35171ZM11.75 15.8032V15.2781H18.2512C18.5861 15.2781 18.9159 15.3598 19.2112 15.516C19.5065 15.6721 19.7584 15.8978 19.9443 16.1732C20.1302 16.4485 20.2446 16.765 20.2771 17.0944C20.3097 17.4239 20.2595 17.7563 20.1311 18.062L17.7704 23.6794H16.2423L18.6209 17.567C18.6518 17.4874 18.6627 17.4016 18.6526 17.317C18.6425 17.2324 18.6117 17.1514 18.5629 17.0812C18.5141 17.0109 18.4487 16.9535 18.3724 16.9138C18.2961 16.8741 18.2112 16.8534 18.125 16.8534H12.8125C12.5308 16.853 12.2608 16.7423 12.0616 16.5454C11.8624 16.3485 11.7503 16.0816 11.75 15.8032ZM10.1562 17.9035H14.4062C14.5471 17.9035 14.6823 17.9589 14.7819 18.0573C14.8815 18.1558 14.9375 18.2894 14.9375 18.4286C14.9375 18.5679 14.8815 18.7014 14.7819 18.7999C14.6823 18.8984 14.5471 18.9537 14.4062 18.9537H10.1562C10.0154 18.9537 9.88023 18.8984 9.7806 18.7999C9.68097 18.7014 9.625 18.5679 9.625 18.4286C9.625 18.2894 9.68097 18.1558 9.7806 18.0573C9.88023 17.9589 10.0154 17.9035 10.1562 17.9035ZM1.125 10.5524V10.0273C1.12516 9.88808 1.18118 9.75461 1.28077 9.65618C1.38037 9.55774 1.5154 9.50237 1.65625 9.50221H8.03125C8.1721 9.50237 8.30713 9.55774 8.40673 9.65618C8.50632 9.75461 8.56234 9.88808 8.5625 10.0273V10.5524H1.125ZM1.125 17.9035H8.5625V18.9537H6.48538L1.125 17.9904V17.9035ZM2.84426 22.6293C2.61366 22.8143 2.39435 23.0127 2.1875 23.2234V22.6293H2.84426ZM6.96875 30.5055C6.40983 30.5031 5.86124 30.3564 5.37723 30.0802C4.89322 29.8039 4.49055 29.4075 4.20904 28.9303H5.56452C5.9522 29.2686 6.45157 29.4554 6.96875 29.4554C7.48593 29.4554 7.9853 29.2686 8.37298 28.9303H9.72846C9.44695 29.4075 9.04428 29.8039 8.56027 30.0802C8.07626 30.3564 7.52767 30.5031 6.96875 30.5055ZM21.0203 27.3649C20.8708 27.5271 20.6887 27.6567 20.4856 27.7454C20.2825 27.8342 20.063 27.88 19.8409 27.8801H1.14698C1.26123 26.5093 1.81959 25.2113 2.7392 24.179C3.6588 23.1466 4.89066 22.4347 6.25196 22.1491C6.38929 22.1196 6.52939 22.1045 6.66992 22.1042H10.1562V21.054H6.96875V20.0039H14.8246C14.7346 20.2035 14.5948 20.3774 14.4182 20.5091C14.2417 20.6408 14.0342 20.726 13.8152 20.7568C13.0946 20.8593 12.4353 21.2146 11.9579 21.7579C11.4438 22.343 11.2188 23.0749 11.2188 23.8403C11.2183 24.5517 11.4757 25.2398 11.9444 25.7798H7.5V26.8299H18.5274C19.0902 26.8258 19.6292 26.6052 20.03 26.2147L23.3463 22.9369C23.7435 22.5421 23.9671 22.0085 23.9688 21.4518V17.3785C23.9691 17.0528 24.0715 16.7352 24.2617 16.4693C24.4519 16.2034 24.7207 16.0021 25.0312 15.8932V17.9035C25.0322 18.6478 25.2993 19.3678 25.7854 19.9363C26.2714 20.5048 26.9452 20.8852 27.6875 21.0103V22.1042C27.3577 22.1042 27.0202 22.0845 26.6923 22.1268C25.6985 22.2243 24.7603 22.6262 24.0089 23.2764C23.2576 23.9267 22.7306 24.7927 22.5016 25.7535L21.0203 27.3649ZM27.4405 26.3049H27.4675L28.1087 26.9387C28.2202 27.0493 28.2829 27.1989 28.2832 27.355C28.2832 27.4715 28.2482 27.5853 28.1828 27.6821C28.1173 27.779 28.0243 27.8544 27.9155 27.899C27.8066 27.9436 27.6868 27.9552 27.5713 27.9325C27.4557 27.9098 27.3496 27.8537 27.2663 27.7713L26.7773 27.2881L27.4405 26.3049ZM27.6875 30.5055C27.2272 30.5041 26.7726 30.4047 26.3546 30.214C25.9366 30.0234 25.5651 29.746 25.2653 29.4007C25.3494 29.3602 25.4212 29.2984 25.4733 29.2216L25.9338 28.539C26.1896 28.9097 26.5589 29.1898 26.9875 29.3379C27.4161 29.4861 27.8815 29.4945 28.3153 29.3621C28.7492 29.2297 29.1287 28.9633 29.3981 28.6021C29.6676 28.2409 29.8128 27.8038 29.8125 27.355C29.8133 27.0439 29.7432 26.7365 29.6074 26.4558C29.5826 26.4042 29.5553 26.3542 29.5266 26.3049H30.6934C30.863 26.7801 30.9148 27.2886 30.8446 27.7878C30.7743 28.2869 30.584 28.7621 30.2896 29.1735C29.9952 29.585 29.6052 29.9207 29.1525 30.1524C28.6997 30.3842 28.1974 30.5053 27.6875 30.5055Z" fill="#00AAFF"/>
<path d="M3.25 12.6522H2.1875V15.8027H3.25V12.6522Z" fill="#00AAFF"/>
</svg>
