<svg width="15" height="15" viewBox="0 0 15 15" fill="none" xmlns="http://www.w3.org/2000/svg">
<path d="M9.31799 14.3001C9.05867 14.3001 8.81929 14.1616 8.70235 13.9406L6.66077 10.0822C6.54865 9.87034 6.56791 9.61684 6.7103 9.42119L10.0059 5.20009L5.53818 8.31359C5.33113 8.44879 5.06286 8.46569 4.83862 8.36039L0.756148 6.43184C0.511268 6.31549 0.362002 6.07304 0.377135 5.81434C0.39158 5.55564 0.568361 5.32944 0.825622 5.24039L13.895 0.690388C14.1461 0.603938 14.4288 0.660488 14.6194 0.840538C14.8092 1.01929 14.8711 1.28709 14.7783 1.52499L9.96321 13.875C9.86828 14.1181 9.62959 14.2851 9.35582 14.2988C9.34344 14.2994 9.33037 14.3001 9.31799 14.3001Z" fill="white"/>
</svg>
