<svg width="34" height="32" viewBox="0 0 34 32" fill="none" xmlns="http://www.w3.org/2000/svg">
<path d="M31.7543 11.8812L32.7503 10.8853C33.0383 10.5974 33.1969 10.2146 33.1969 9.80742C33.1969 9.40028 33.0383 9.01745 32.7504 8.72958L31.6096 7.58879C31.3217 7.30092 30.9389 7.14234 30.5318 7.14234C30.1246 7.14234 29.7418 7.30092 29.454 7.58879L28.4579 8.58481C27.1434 7.67936 25.6517 7.01371 24.046 6.6516V5.17944H24.6521C25.4727 5.17944 26.1403 4.51179 26.1403 3.69121V1.6208C26.1403 0.800154 25.4727 0.132507 24.6521 0.132507H17.8004C16.9798 0.132507 16.3122 0.800154 16.3122 1.6208V3.69114C16.3122 4.51173 16.9798 5.17937 17.8004 5.17937H18.4064V6.65565C16.8081 7.01876 15.3231 7.68288 14.0137 8.58475L13.0177 7.58872C12.7299 7.30085 12.347 7.14227 11.94 7.14227C11.5327 7.14227 11.15 7.30085 10.8621 7.58872L9.72132 8.72951C9.12706 9.32384 9.12706 10.2909 9.72132 10.8852L9.8979 11.0618H5.19077C4.82407 11.0618 4.52671 11.3591 4.52671 11.7258C4.52671 12.0926 4.82407 12.3899 5.19077 12.3899H10.3845C9.88966 13.1868 9.48 14.0417 9.16863 14.9423H0.664061C0.297367 14.9423 0 15.2396 0 15.6064C0 15.9732 0.297367 16.2705 0.664061 16.2705H8.78898C8.60165 17.0942 8.4942 17.9477 8.47521 18.8229H4.24999C3.8833 18.8229 3.58593 19.1202 3.58593 19.487C3.58593 19.8537 3.8833 20.151 4.24999 20.151H8.51492C8.58671 21.0299 8.74801 21.8836 8.98946 22.7035H3.32031C2.95361 22.7035 2.65624 23.0008 2.65624 23.3675C2.65624 23.7343 2.95361 24.0316 3.32031 24.0316H9.46181C11.3938 28.63 15.9436 31.8675 21.2358 31.8675C28.274 31.8675 34 26.1415 34 19.1033C34 16.4246 33.1699 13.9364 31.7543 11.8812ZM30.3931 8.5279C30.4406 8.48042 30.4947 8.47046 30.5318 8.47046C30.5689 8.47046 30.623 8.48042 30.6705 8.5279L31.8113 9.66869C31.8588 9.71617 31.8688 9.77036 31.8688 9.80742C31.8688 9.84447 31.8588 9.89866 31.8112 9.94614L30.9382 10.8192C30.5031 10.3104 30.0288 9.8361 29.52 9.40101L30.3931 8.5279ZM17.6403 3.69121V1.6208C17.6403 1.53248 17.7122 1.46063 17.8004 1.46063H24.6521C24.7403 1.46063 24.8122 1.53248 24.8122 1.6208V3.69114C24.8122 3.77947 24.7403 3.85125 24.6521 3.85125H23.382H19.0704H17.8004C17.7122 3.85132 17.6403 3.77947 17.6403 3.69121ZM19.7345 5.17944H22.7179V6.42568C22.2315 6.36917 21.7372 6.33916 21.2359 6.33916C20.7279 6.33916 20.2272 6.3699 19.7346 6.42787L19.7345 5.17944ZM10.6604 9.66863L11.8012 8.52784C11.8486 8.48036 11.9028 8.4704 11.9399 8.4704C11.9769 8.4704 12.0311 8.48036 12.0786 8.52784L12.9516 9.40094C12.4428 9.83604 11.9686 10.3103 11.5335 10.8191L10.6604 9.94607C10.5839 9.86964 10.5839 9.74513 10.6604 9.66863ZM21.2358 30.5393C14.93 30.5393 9.79975 25.4091 9.79975 19.1033C9.79975 12.7974 14.93 7.66721 21.2358 7.66721C27.5417 7.66721 32.6719 12.7974 32.6719 19.1033C32.6719 25.4091 27.5417 30.5393 21.2358 30.5393Z" fill="#FF6838"/>
<path d="M25.6188 13.7811L22.4797 16.9202C22.1126 16.7102 21.6881 16.5895 21.2358 16.5895C19.8497 16.5895 18.722 17.7171 18.722 19.1033C18.722 20.4894 19.8497 21.617 21.2358 21.617C22.6219 21.617 23.7495 20.4894 23.7495 19.1033C23.7495 18.6509 23.6288 18.2265 23.4188 17.8594L26.5579 14.7203C26.8172 14.461 26.8172 14.0405 26.5579 13.7811C26.2985 13.5218 25.8782 13.5218 25.6188 13.7811ZM21.2358 20.289C20.582 20.289 20.0502 19.7571 20.0502 19.1034C20.0502 18.4496 20.5821 17.9177 21.2358 17.9177C21.8895 17.9177 22.4214 18.4496 22.4214 19.1034C22.4214 19.7571 21.8896 20.289 21.2358 20.289Z" fill="#FF6838"/>
<path d="M21.2361 10.4937C21.4107 10.4937 21.582 10.4226 21.7055 10.2991C21.829 10.1756 21.9001 10.0042 21.9001 9.82959C21.9001 9.65494 21.8291 9.48361 21.7055 9.3601C21.582 9.23658 21.4107 9.16553 21.2361 9.16553C21.0614 9.16553 20.8901 9.23658 20.7666 9.3601C20.643 9.48361 20.572 9.65494 20.572 9.82959C20.572 10.0049 20.643 10.1756 20.7666 10.2991C20.8901 10.4226 21.0614 10.4937 21.2361 10.4937Z" fill="#FF6838"/>
<path d="M21.2361 27.7128C21.0614 27.7128 20.8901 27.7838 20.7666 27.9073C20.643 28.0309 20.572 28.2022 20.572 28.3768C20.572 28.5521 20.643 28.7228 20.7666 28.8463C20.8901 28.9705 21.0614 29.0409 21.2361 29.0409C21.4107 29.0409 21.582 28.9705 21.7055 28.8463C21.829 28.7228 21.9001 28.5515 21.9001 28.3768C21.9001 28.2022 21.8291 28.0309 21.7055 27.9073C21.582 27.7838 21.4107 27.7128 21.2361 27.7128Z" fill="#FF6838"/>
<path d="M14.6784 11.8815C14.5038 11.8815 14.3325 11.9525 14.2089 12.076C14.0854 12.1996 14.0144 12.3709 14.0144 12.5455C14.0144 12.7208 14.0854 12.8915 14.2089 13.0157C14.3325 13.1392 14.5038 13.2096 14.6784 13.2096C14.8531 13.2096 15.0244 13.1392 15.1479 13.0157C15.2714 12.8915 15.3425 12.7208 15.3425 12.5455C15.3425 12.3709 15.2714 12.2002 15.1479 12.076C15.0244 11.9525 14.8531 11.8815 14.6784 11.8815Z" fill="#FF6838"/>
<path d="M27.7937 24.9967C27.6183 24.9967 27.4477 25.0678 27.3235 25.1913C27.2 25.3148 27.1296 25.4861 27.1296 25.6608C27.1296 25.8354 27.2 26.0067 27.3235 26.1303C27.4477 26.2538 27.6183 26.3248 27.7937 26.3248C27.9683 26.3248 28.1396 26.2538 28.2631 26.1303C28.3866 26.0067 28.4577 25.8354 28.4577 25.6608C28.4577 25.4861 28.3867 25.3148 28.2631 25.1913C28.1396 25.0678 27.9683 24.9967 27.7937 24.9967Z" fill="#FF6838"/>
<path d="M14.6784 24.9967C14.5038 24.9967 14.3325 25.0678 14.2089 25.1913C14.0854 25.3148 14.0144 25.4861 14.0144 25.6608C14.0144 25.8354 14.0854 26.0067 14.2089 26.1303C14.3325 26.2538 14.5038 26.3248 14.6784 26.3248C14.8531 26.3248 15.0244 26.2538 15.1479 26.1303C15.2714 26.0067 15.3425 25.8354 15.3425 25.6608C15.3425 25.4861 15.2714 25.3148 15.1479 25.1913C15.0244 25.0678 14.8531 24.9967 14.6784 24.9967Z" fill="#FF6838"/>
<path d="M11.9625 18.4391C11.7872 18.4391 11.6165 18.5101 11.493 18.6337C11.3689 18.7572 11.2984 18.9285 11.2984 19.1031C11.2984 19.2778 11.3689 19.4491 11.493 19.5726C11.6165 19.6968 11.7872 19.7672 11.9625 19.7672C12.1371 19.7672 12.3084 19.6968 12.432 19.5726C12.5554 19.4491 12.6265 19.2778 12.6265 19.1031C12.6265 18.9285 12.5555 18.7572 12.432 18.6337C12.3084 18.5101 12.1371 18.4391 11.9625 18.4391Z" fill="#FF6838"/>
<path d="M30.9791 18.6337C30.8556 18.5101 30.6843 18.4391 30.5096 18.4391C30.3343 18.4391 30.1636 18.5101 30.0402 18.6337C29.9167 18.7572 29.8456 18.9285 29.8456 19.1031C29.8456 19.2785 29.9166 19.4491 30.0402 19.5726C30.1636 19.6962 30.335 19.7672 30.5096 19.7672C30.6843 19.7672 30.8556 19.6962 30.9791 19.5726C31.1026 19.4491 31.1737 19.2778 31.1737 19.1031C31.1736 18.9285 31.1026 18.7572 30.9791 18.6337Z" fill="#FF6838"/>
<path d="M0.664062 22.7037C0.489414 22.7037 0.318086 22.7741 0.19457 22.8976C0.0710547 23.0218 0 23.1925 0 23.3678C0 23.5424 0.0709883 23.7131 0.19457 23.8373C0.318086 23.9608 0.489414 24.0319 0.664062 24.0319C0.838711 24.0319 1.01004 23.9608 1.13349 23.8373C1.257 23.7138 1.32812 23.5424 1.32812 23.3678C1.32812 23.1925 1.25707 23.0212 1.13349 22.8976C1.01004 22.7741 0.838711 22.7037 0.664062 22.7037Z" fill="#FF6838"/>
<path d="M30.3142 17.087C30.6656 16.9823 30.8657 16.6124 30.761 16.2609C30.2915 14.6857 29.425 13.236 28.2553 12.0687C27.0853 10.9013 25.6336 10.038 24.057 9.57198C23.7054 9.46799 23.3359 9.66886 23.232 10.0206C23.128 10.3722 23.3288 10.7417 23.6806 10.8456C26.4825 11.6737 28.6536 13.84 29.4882 16.6402C29.574 16.9284 29.8382 17.1147 30.1243 17.1147C30.187 17.1148 30.2509 17.1058 30.3142 17.087Z" fill="#FF6838"/>
</svg>
